<?xml version="1.0" standalone="no"?><!DOCTYPE svg PUBLIC "-//W3C//DTD SVG 1.1//EN" "http://www.w3.org/Graphics/SVG/1.1/DTD/svg11.dtd"><svg t="1694072368521" class="icon" viewBox="0 0 1024 1024" version="1.1" xmlns="http://www.w3.org/2000/svg" p-id="53111" xmlns:xlink="http://www.w3.org/1999/xlink" width="200" height="200"><path d="M486.4 522.24L163.84 346.88c-5.12-2.56-10.24-2.56-15.36 0-5.12 2.56-7.68 7.68-7.68 12.8V691.2c0 5.12 2.56 10.24 7.68 12.8l321.28 175.36c2.56 1.28 5.12 1.28 7.68 1.28 2.56 0 5.12-1.28 7.68-2.56 5.12-2.56 7.68-7.68 7.68-12.8V535.04c1.28-5.12-2.56-10.24-6.4-12.8zM874.24 362.24c-3.84-2.56-10.24-2.56-14.08-1.28L538.88 522.24c-5.12 2.56-7.68 7.68-7.68 12.8v331.52c0 5.12 2.56 10.24 7.68 12.8 2.56 1.28 5.12 2.56 7.68 2.56 2.56 0 5.12 0 6.4-1.28l321.28-160c5.12-2.56 7.68-7.68 7.68-12.8v-332.8c0-5.12-2.56-10.24-7.68-12.8zM861.44 309.76c0-6.4-3.84-11.52-8.96-12.8L518.4 144.64c-3.84-1.28-8.96-1.28-12.8 0L171.52 295.68c-5.12 2.56-8.96 7.68-8.96 12.8 0 6.4 2.56 11.52 7.68 14.08l334.08 165.12c2.56 1.28 3.84 1.28 6.4 1.28s5.12 0 6.4-1.28l334.08-165.12c6.4-2.56 10.24-7.68 10.24-12.8z" fill="#4E85F0" p-id="53112"></path></svg>